<?xml version="1.0" encoding="utf-8"?>
<svg viewBox="0 0 20 20" height="20px" width="20px" version="1.1" id="svg4190" xmlns="http://www.w3.org/2000/svg">
  <path id="path4200" d="M 9.415 19.938 C 9.381 19.904 9.344 19.845 9.332 19.805 C 9.308 19.727 8.795 16.548 8.751 16.208 C 8.706 15.864 8.849 15.401 9.087 15.117 C 9.144 15.049 9.184 14.948 9.184 14.872 C 9.184 14.756 8.984 14.542 7.226 12.788 C 5.067 10.633 5.174 10.718 4.877 10.938 C 4.508 11.211 4.111 11.3 3.608 11.223 C 3.416 11.194 2.623 11.073 1.845 10.956 C 1.067 10.838 0.362 10.725 0.279 10.705 C 0.081 10.656 0 10.571 0 10.411 C 0 10.294 0.247 10.035 2.552 7.738 C 5 5.3 5.115 5.192 5.35 5.106 C 5.706 4.976 5.919 4.988 6.746 5.186 C 7.298 5.318 7.523 5.355 7.639 5.334 C 7.755 5.312 7.915 5.198 8.293 4.866 C 10.113 3.271 11.948 2.016 13.714 1.157 C 14.851 0.605 15.565 0.338 16.405 0.154 C 18.143 -0.226 19.276 0.098 19.763 1.117 C 19.966 1.542 20.02 1.881 19.994 2.567 C 19.963 3.377 19.822 3.999 19.414 5.125 C 18.657 7.213 17.005 9.824 15.119 11.911 C 14.899 12.154 14.707 12.4 14.693 12.456 C 14.678 12.517 14.732 12.826 14.827 13.22 C 15.035 14.089 15.04 14.387 14.854 14.763 C 14.736 15 14.457 15.292 12.229 17.514 C 9.985 19.752 9.723 20 9.606 20 C 9.535 20 9.449 19.972 9.415 19.938 Z M 15.709 6.988 C 15.991 6.901 16.391 6.679 16.58 6.503 C 16.769 6.327 17.009 5.93 17.102 5.639 C 17.219 5.27 17.219 4.694 17.103 4.327 C 16.837 3.491 16.017 2.895 15.133 2.895 C 14.517 2.895 14.087 3.075 13.629 3.528 C 13.277 3.875 13.102 4.212 13.034 4.669 C 12.844 5.941 13.808 7.064 15.094 7.068 C 15.333 7.068 15.533 7.043 15.709 6.988 Z M 2 18.135 C 1.87 17.85 2.266 16.625 2.911 15.317 C 3.373 14.378 3.847 13.618 4.333 13.035 C 4.676 12.623 4.81 12.512 4.929 12.541 C 5.073 12.575 7.491 15.002 7.527 15.148 C 7.554 15.258 7.53 15.293 7.209 15.603 C 6.516 16.272 5.91 16.641 4.792 17.077 C 4.468 17.204 4.036 17.372 3.833 17.451 C 3.631 17.53 3.158 17.74 2.783 17.918 C 2.409 18.095 2.09 18.24 2.075 18.24 C 2.06 18.24 2.027 18.193 2 18.135 Z" style="fill: rgb(128, 128, 128);"/>
</svg>