<?xml version="1.0" encoding="utf-8"?>
<svg viewBox="0 0 20 20" xmlns="http://www.w3.org/2000/svg">
  <g transform="matrix(0.672423, 0, 0, 0.672517, 0.208849, 0.206135)">
    <g>
      <path d="M 7.848 7.868 C 11.099 4.618 16.07 4.153 19.825 6.45 C 18.552 7.711 17.085 9.183 17.085 9.183 C 16.056 10.414 17.211 11.125 17.798 11.107 L 24.659 11.105 C 25.022 11.105 25.318 11.107 25.318 11.107 C 25.318 11.107 25.618 11.107 25.98 11.107 L 27.31 11.107 C 27.674 11.107 27.969 10.811 27.97 10.447 L 27.97 1.009 C 28.012 0.146 27.064 -0.691 26.085 0.273 C 26.085 0.273 24.465 1.851 23.348 2.959 C 17.629 -1.218 9.568 -0.746 4.401 4.421 C 1.386 7.435 -0.019 11.435 0.149 15.384 L 5.033 15.384 C 4.859 12.686 5.785 9.931 7.848 7.868 Z" style="fill: rgb(128, 128, 128);"/>
      <path d="M 24.09 13.744 C 24.262 16.442 23.337 19.196 21.273 21.26 C 18.021 24.51 13.053 24.974 9.297 22.677 C 10.569 21.418 12.037 19.945 12.037 19.945 C 13.064 18.712 11.911 18.002 11.324 18.022 L 4.461 18.024 C 4.099 18.024 3.803 18.022 3.803 18.022 C 3.803 18.022 3.504 18.022 3.141 18.022 L 1.807 18.022 C 1.444 18.022 1.149 18.318 1.148 18.681 L 1.148 28.117 C 1.106 28.981 2.054 29.818 3.034 28.854 C 3.034 28.854 4.652 27.276 5.771 26.169 C 11.493 30.35 19.553 29.876 24.72 24.71 C 27.732 21.696 29.14 17.696 28.973 13.746 L 24.09 13.744 L 24.09 13.744 Z" style="fill: rgb(128, 128, 128);"/>
    </g>
  </g>
</svg>
