<?xml version="1.0" encoding="utf-8"?>
<svg viewBox="0 0 90 90" version="1.1" xmlns="http://www.w3.org/2000/svg">
  <defs>
    <linearGradient id="gradient" x1="0.5" x2="0.5" y1="0" y2="1">
      <stop stop-color="#1aa1e3" offset="0"/>
      <stop stop-color="#3dafe8" offset="1"/>
    </linearGradient>
  </defs>
  <g transform="matrix(1, 0, 0, 1, 5.043002, 5.000003)">
    <rect fill="#ffffff" width="80" height="80"/>
    <path fill="url(#gradient)" d="M -0.033 0 L 79.967 0 L 79.967 40.5 C 77.867 39 76.167 38.5 73.967 38.5 C 71.067 31.6 68.567 25.2 65.067 19.2 C 66.167 15.8 65.767 12.4 63.167 9.2 C 60.567 6 55.267 4.4 50.867 6.6 C 47.267 8.3 45.367 11.7 45.167 14.7 C 43.367 15.9 42.467 16.7 40.567 19.3 C 38.667 21.9 36.567 26.6 34.967 30.3 C 28.967 30.7 26.667 33.3 25.167 36.9 C 23.667 40.5 25.167 46.4 28.167 48.5 C 26.867 52.1 25.367 55 22.567 57.4 C 19.867 53.6 15.967 52.7 12.467 53.2 C 8.967 53.6 5.067 56.6 4.167 60.8 L -0.033 60.8 Z"/>
    <path fill="#0d86c2" d="M 46.667 21.5 C 50.267 26.2 55.967 27.4 61.167 24.4 C 63.567 29.8 65.967 35.2 68.067 40.2 C 63.667 42.9 62.567 48.8 64.567 53.1 C 66.567 57.4 70.567 59.6 76.267 58.8 C 77.567 61.6 78.767 64.1 80.067 66.7 C 80.037 71.2 80.063 75.9 80.067 80 L -0.033 80 C 0.086 75.3 -0.153 71.1 -0.033 66.9 C 1.467 66.9 3.167 66.91 4.567 66.9 C 6.467 71.7 11.867 74.6 16.767 73.2 C 21.667 71.8 24.167 67.7 24.467 63.8 C 29.167 60.6 32.167 55.9 33.967 50.8 C 38.167 51.3 42.667 48.5 44.267 44.3 C 45.867 40.1 44.867 35.4 40.767 32.2 C 42.267 28.2 44.167 24.4 46.667 21.4 Z"/>
    <circle fill="#016ca1" cy="63.2" cx="14.2" r="4.4"/>
    <circle fill="#016ca1" cy="40.6" cx="34.8" r="4.4"/>
    <circle fill="#016ca1" cy="15.8" cx="55.4" r="4.4"/>
    <circle fill="#016ca1" cy="48.8" cx="73.9" r="4.4"/>
  </g>
</svg>